<svg width="122" height="122" viewBox="0 0 122 122" fill="none" xmlns="http://www.w3.org/2000/svg">
<circle cx="61" cy="61" r="61" fill="#ADADAD"/>
<g filter="url(#filter0_dd_212_42)">
<path d="M21.6786 83.999C21.9746 83.999 22.2326 83.963 22.4526 83.891C22.6726 83.815 22.8546 83.709 22.9986 83.573C23.1466 83.433 23.2566 83.265 23.3286 83.069C23.4006 82.869 23.4366 82.647 23.4366 82.403C23.4366 82.171 23.4006 81.961 23.3286 81.773C23.2566 81.585 23.1486 81.425 23.0046 81.293C22.8606 81.161 22.6786 81.061 22.4586 80.993C22.2386 80.921 21.9786 80.885 21.6786 80.885H20.4726V83.999H21.6786ZM21.6786 79.637C22.2586 79.637 22.7606 79.705 23.1846 79.841C23.6086 79.977 23.9586 80.167 24.2346 80.411C24.5106 80.655 24.7146 80.947 24.8466 81.287C24.9826 81.627 25.0506 81.999 25.0506 82.403C25.0506 82.823 24.9806 83.209 24.8406 83.561C24.7006 83.909 24.4906 84.209 24.2106 84.461C23.9306 84.713 23.5786 84.909 23.1546 85.049C22.7346 85.189 22.2426 85.259 21.6786 85.259H20.4726V88.313H18.8586V79.637H21.6786ZM27.3585 83.225C27.5505 82.857 27.7785 82.569 28.0425 82.361C28.3065 82.149 28.6185 82.043 28.9785 82.043C29.2625 82.043 29.4905 82.105 29.6625 82.229L29.5665 83.339C29.5465 83.411 29.5165 83.463 29.4765 83.495C29.4405 83.523 29.3905 83.537 29.3265 83.537C29.2665 83.537 29.1765 83.527 29.0565 83.507C28.9405 83.487 28.8265 83.477 28.7145 83.477C28.5505 83.477 28.4045 83.501 28.2765 83.549C28.1485 83.597 28.0325 83.667 27.9285 83.759C27.8285 83.847 27.7385 83.955 27.6585 84.083C27.5825 84.211 27.5105 84.357 27.4425 84.521V88.313H25.9605V82.157H26.8305C26.9825 82.157 27.0885 82.185 27.1485 82.241C27.2085 82.293 27.2485 82.389 27.2685 82.529L27.3585 83.225ZM32.9853 82.061C33.4413 82.061 33.8553 82.135 34.2273 82.283C34.6033 82.431 34.9233 82.641 35.1873 82.913C35.4553 83.185 35.6613 83.517 35.8053 83.909C35.9493 84.301 36.0213 84.739 36.0213 85.223C36.0213 85.711 35.9493 86.151 35.8053 86.543C35.6613 86.935 35.4553 87.269 35.1873 87.545C34.9233 87.821 34.6033 88.033 34.2273 88.181C33.8553 88.329 33.4413 88.403 32.9853 88.403C32.5253 88.403 32.1073 88.329 31.7313 88.181C31.3553 88.033 31.0333 87.821 30.7653 87.545C30.5013 87.269 30.2953 86.935 30.1473 86.543C30.0033 86.151 29.9313 85.711 29.9313 85.223C29.9313 84.739 30.0033 84.301 30.1473 83.909C30.2953 83.517 30.5013 83.185 30.7653 82.913C31.0333 82.641 31.3553 82.431 31.7313 82.283C32.1073 82.135 32.5253 82.061 32.9853 82.061ZM32.9853 87.263C33.4973 87.263 33.8753 87.091 34.1193 86.747C34.3673 86.403 34.4913 85.899 34.4913 85.235C34.4913 84.571 34.3673 84.065 34.1193 83.717C33.8753 83.369 33.4973 83.195 32.9853 83.195C32.4653 83.195 32.0793 83.371 31.8273 83.723C31.5793 84.071 31.4553 84.575 31.4553 85.235C31.4553 85.895 31.5793 86.399 31.8273 86.747C32.0793 87.091 32.4653 87.263 32.9853 87.263ZM38.6879 82.157V88.523C38.6879 88.791 38.6519 89.043 38.5799 89.279C38.5119 89.515 38.3999 89.721 38.2439 89.897C38.0919 90.077 37.8899 90.217 37.6379 90.317C37.3899 90.421 37.0859 90.473 36.7259 90.473C36.5859 90.473 36.4559 90.463 36.3359 90.443C36.2159 90.427 36.0919 90.399 35.9639 90.359L36.0179 89.561C36.0299 89.481 36.0619 89.429 36.1139 89.405C36.1659 89.385 36.2659 89.375 36.4139 89.375C36.5619 89.375 36.6859 89.359 36.7859 89.327C36.8899 89.299 36.9719 89.251 37.0319 89.183C37.0919 89.119 37.1339 89.033 37.1579 88.925C37.1859 88.817 37.1999 88.683 37.1999 88.523V82.157H38.6879ZM38.8919 80.363C38.8919 80.491 38.8659 80.611 38.8139 80.723C38.7619 80.835 38.6919 80.933 38.6039 81.017C38.5199 81.101 38.4179 81.169 38.2979 81.221C38.1819 81.269 38.0579 81.293 37.9259 81.293C37.7979 81.293 37.6779 81.269 37.5659 81.221C37.4539 81.169 37.3559 81.101 37.2719 81.017C37.1879 80.933 37.1199 80.835 37.0679 80.723C37.0199 80.611 36.9959 80.491 36.9959 80.363C36.9959 80.231 37.0199 80.107 37.0679 79.991C37.1199 79.875 37.1879 79.775 37.2719 79.691C37.3559 79.607 37.4539 79.541 37.5659 79.493C37.6779 79.441 37.7979 79.415 37.9259 79.415C38.0579 79.415 38.1819 79.441 38.2979 79.493C38.4179 79.541 38.5199 79.607 38.6039 79.691C38.6919 79.775 38.7619 79.875 38.8139 79.991C38.8659 80.107 38.8919 80.231 38.8919 80.363ZM44.1648 84.527C44.1648 84.335 44.1368 84.155 44.0808 83.987C44.0288 83.815 43.9488 83.665 43.8408 83.537C43.7328 83.409 43.5948 83.309 43.4268 83.237C43.2628 83.161 43.0708 83.123 42.8508 83.123C42.4228 83.123 42.0848 83.245 41.8368 83.489C41.5928 83.733 41.4368 84.079 41.3688 84.527H44.1648ZM41.3388 85.421C41.3628 85.737 41.4188 86.011 41.5068 86.243C41.5948 86.471 41.7108 86.661 41.8548 86.813C41.9988 86.961 42.1688 87.073 42.3648 87.149C42.5648 87.221 42.7848 87.257 43.0248 87.257C43.2648 87.257 43.4708 87.229 43.6428 87.173C43.8188 87.117 43.9708 87.055 44.0988 86.987C44.2308 86.919 44.3448 86.857 44.4408 86.801C44.5408 86.745 44.6368 86.717 44.7288 86.717C44.8528 86.717 44.9448 86.763 45.0048 86.855L45.4308 87.395C45.2668 87.587 45.0828 87.749 44.8788 87.881C44.6748 88.009 44.4608 88.113 44.2368 88.193C44.0168 88.269 43.7908 88.323 43.5588 88.355C43.3308 88.387 43.1088 88.403 42.8928 88.403C42.4648 88.403 42.0668 88.333 41.6988 88.193C41.3308 88.049 41.0108 87.839 40.7388 87.563C40.4668 87.283 40.2528 86.939 40.0968 86.531C39.9408 86.119 39.8628 85.643 39.8628 85.103C39.8628 84.683 39.9308 84.289 40.0668 83.921C40.2028 83.549 40.3968 83.227 40.6488 82.955C40.9048 82.679 41.2148 82.461 41.5788 82.301C41.9468 82.141 42.3608 82.061 42.8208 82.061C43.2088 82.061 43.5668 82.123 43.8948 82.247C44.2228 82.371 44.5048 82.553 44.7408 82.793C44.9768 83.029 45.1608 83.321 45.2928 83.669C45.4288 84.013 45.4968 84.407 45.4968 84.851C45.4968 85.075 45.4728 85.227 45.4248 85.307C45.3768 85.383 45.2848 85.421 45.1488 85.421H41.3388ZM51.019 83.459C50.975 83.515 50.931 83.559 50.887 83.591C50.847 83.623 50.787 83.639 50.707 83.639C50.631 83.639 50.557 83.617 50.485 83.573C50.413 83.525 50.327 83.473 50.227 83.417C50.127 83.357 50.007 83.305 49.867 83.261C49.731 83.213 49.561 83.189 49.357 83.189C49.097 83.189 48.869 83.237 48.673 83.333C48.477 83.425 48.313 83.559 48.181 83.735C48.053 83.911 47.957 84.125 47.893 84.377C47.829 84.625 47.797 84.907 47.797 85.223C47.797 85.551 47.831 85.843 47.899 86.099C47.971 86.355 48.073 86.571 48.205 86.747C48.337 86.919 48.497 87.051 48.685 87.143C48.873 87.231 49.085 87.275 49.321 87.275C49.557 87.275 49.747 87.247 49.891 87.191C50.039 87.131 50.163 87.067 50.263 86.999C50.363 86.927 50.449 86.863 50.521 86.807C50.597 86.747 50.681 86.717 50.773 86.717C50.893 86.717 50.983 86.763 51.043 86.855L51.469 87.395C51.305 87.587 51.127 87.749 50.935 87.881C50.743 88.009 50.543 88.113 50.335 88.193C50.131 88.269 49.919 88.323 49.699 88.355C49.483 88.387 49.267 88.403 49.051 88.403C48.671 88.403 48.313 88.333 47.977 88.193C47.641 88.049 47.347 87.841 47.095 87.569C46.843 87.297 46.643 86.965 46.495 86.573C46.351 86.177 46.279 85.727 46.279 85.223C46.279 84.771 46.343 84.353 46.471 83.969C46.603 83.581 46.795 83.247 47.047 82.967C47.299 82.683 47.611 82.461 47.983 82.301C48.355 82.141 48.783 82.061 49.267 82.061C49.727 82.061 50.129 82.135 50.473 82.283C50.821 82.431 51.133 82.643 51.409 82.919L51.019 83.459ZM54.45 88.409C53.914 88.409 53.502 88.259 53.214 87.959C52.93 87.655 52.788 87.237 52.788 86.705V83.267H52.158C52.078 83.267 52.01 83.241 51.954 83.189C51.898 83.137 51.87 83.059 51.87 82.955V82.367L52.86 82.205L53.172 80.525C53.192 80.445 53.23 80.383 53.286 80.339C53.342 80.295 53.414 80.273 53.502 80.273H54.27V82.211H55.914V83.267H54.27V86.603C54.27 86.795 54.316 86.945 54.408 87.053C54.504 87.161 54.634 87.215 54.798 87.215C54.89 87.215 54.966 87.205 55.026 87.185C55.09 87.161 55.144 87.137 55.188 87.113C55.236 87.089 55.278 87.067 55.314 87.047C55.35 87.023 55.386 87.011 55.422 87.011C55.466 87.011 55.502 87.023 55.53 87.047C55.558 87.067 55.588 87.099 55.62 87.143L56.064 87.863C55.848 88.043 55.6 88.179 55.32 88.271C55.04 88.363 54.75 88.409 54.45 88.409ZM71.4768 79.637L68.7828 88.313H67.3248L65.4288 82.385C65.3768 82.241 65.3288 82.065 65.2848 81.857C65.2608 81.957 65.2368 82.051 65.2128 82.139C65.1888 82.227 65.1628 82.309 65.1348 82.385L63.2208 88.313H61.7568L59.0688 79.637H60.4188C60.5588 79.637 60.6748 79.671 60.7668 79.739C60.8628 79.803 60.9268 79.891 60.9588 80.003L62.4348 85.193C62.4668 85.321 62.4968 85.461 62.5248 85.613C62.5568 85.761 62.5888 85.917 62.6208 86.081C62.6528 85.913 62.6868 85.755 62.7228 85.607C62.7628 85.459 62.8048 85.321 62.8488 85.193L64.5528 80.003C64.5848 79.911 64.6468 79.827 64.7388 79.751C64.8348 79.675 64.9508 79.637 65.0868 79.637H65.5608C65.7008 79.637 65.8148 79.671 65.9028 79.739C65.9908 79.807 66.0568 79.895 66.1008 80.003L67.7988 85.193C67.8828 85.441 67.9588 85.727 68.0268 86.051C68.0788 85.735 68.1368 85.449 68.2008 85.193L69.6768 80.003C69.7008 79.903 69.7608 79.817 69.8568 79.745C69.9568 79.673 70.0748 79.637 70.2108 79.637H71.4768ZM74.3056 82.061C74.7616 82.061 75.1756 82.135 75.5476 82.283C75.9236 82.431 76.2436 82.641 76.5076 82.913C76.7756 83.185 76.9816 83.517 77.1256 83.909C77.2696 84.301 77.3416 84.739 77.3416 85.223C77.3416 85.711 77.2696 86.151 77.1256 86.543C76.9816 86.935 76.7756 87.269 76.5076 87.545C76.2436 87.821 75.9236 88.033 75.5476 88.181C75.1756 88.329 74.7616 88.403 74.3056 88.403C73.8456 88.403 73.4276 88.329 73.0516 88.181C72.6756 88.033 72.3536 87.821 72.0856 87.545C71.8216 87.269 71.6156 86.935 71.4676 86.543C71.3236 86.151 71.2516 85.711 71.2516 85.223C71.2516 84.739 71.3236 84.301 71.4676 83.909C71.6156 83.517 71.8216 83.185 72.0856 82.913C72.3536 82.641 72.6756 82.431 73.0516 82.283C73.4276 82.135 73.8456 82.061 74.3056 82.061ZM74.3056 87.263C74.8176 87.263 75.1956 87.091 75.4396 86.747C75.6876 86.403 75.8116 85.899 75.8116 85.235C75.8116 84.571 75.6876 84.065 75.4396 83.717C75.1956 83.369 74.8176 83.195 74.3056 83.195C73.7856 83.195 73.3996 83.371 73.1476 83.723C72.8996 84.071 72.7756 84.575 72.7756 85.235C72.7756 85.895 72.8996 86.399 73.1476 86.747C73.3996 87.091 73.7856 87.263 74.3056 87.263ZM79.8702 83.225C80.0622 82.857 80.2902 82.569 80.5542 82.361C80.8182 82.149 81.1302 82.043 81.4902 82.043C81.7742 82.043 82.0022 82.105 82.1742 82.229L82.0782 83.339C82.0582 83.411 82.0282 83.463 81.9882 83.495C81.9522 83.523 81.9022 83.537 81.8382 83.537C81.7782 83.537 81.6882 83.527 81.5682 83.507C81.4522 83.487 81.3382 83.477 81.2262 83.477C81.0622 83.477 80.9162 83.501 80.7882 83.549C80.6602 83.597 80.5442 83.667 80.4402 83.759C80.3402 83.847 80.2502 83.955 80.1702 84.083C80.0942 84.211 80.0222 84.357 79.9542 84.521V88.313H78.4722V82.157H79.3422C79.4942 82.157 79.6002 82.185 79.6602 82.241C79.7202 82.293 79.7602 82.389 79.7802 82.529L79.8702 83.225ZM86.6814 83.357C86.6414 83.421 86.5994 83.467 86.5554 83.495C86.5114 83.519 86.4554 83.531 86.3874 83.531C86.3154 83.531 86.2374 83.511 86.1534 83.471C86.0734 83.431 85.9794 83.387 85.8714 83.339C85.7634 83.287 85.6394 83.241 85.4994 83.201C85.3634 83.161 85.2014 83.141 85.0134 83.141C84.7214 83.141 84.4914 83.203 84.3234 83.327C84.1594 83.451 84.0774 83.613 84.0774 83.813C84.0774 83.945 84.1194 84.057 84.2034 84.149C84.2914 84.237 84.4054 84.315 84.5454 84.383C84.6894 84.451 84.8514 84.513 85.0314 84.569C85.2114 84.621 85.3934 84.679 85.5774 84.743C85.7654 84.807 85.9494 84.881 86.1294 84.965C86.3094 85.045 86.4694 85.149 86.6094 85.277C86.7534 85.401 86.8674 85.551 86.9514 85.727C87.0394 85.903 87.0834 86.115 87.0834 86.363C87.0834 86.659 87.0294 86.933 86.9214 87.185C86.8174 87.433 86.6614 87.649 86.4534 87.833C86.2454 88.013 85.9874 88.155 85.6794 88.259C85.3754 88.359 85.0234 88.409 84.6234 88.409C84.4114 88.409 84.2034 88.389 83.9994 88.349C83.7994 88.313 83.6054 88.261 83.4174 88.193C83.2334 88.125 83.0614 88.045 82.9014 87.953C82.7454 87.861 82.6074 87.761 82.4874 87.653L82.8294 87.089C82.8734 87.021 82.9254 86.969 82.9854 86.933C83.0454 86.897 83.1214 86.879 83.2134 86.879C83.3054 86.879 83.3914 86.905 83.4714 86.957C83.5554 87.009 83.6514 87.065 83.7594 87.125C83.8674 87.185 83.9934 87.241 84.1374 87.293C84.2854 87.345 84.4714 87.371 84.6954 87.371C84.8714 87.371 85.0214 87.351 85.1454 87.311C85.2734 87.267 85.3774 87.211 85.4574 87.143C85.5414 87.075 85.6014 86.997 85.6374 86.909C85.6774 86.817 85.6974 86.723 85.6974 86.627C85.6974 86.483 85.6534 86.365 85.5654 86.273C85.4814 86.181 85.3674 86.101 85.2234 86.033C85.0834 85.965 84.9214 85.905 84.7374 85.853C84.5574 85.797 84.3714 85.737 84.1794 85.673C83.9914 85.609 83.8054 85.535 83.6214 85.451C83.4414 85.363 83.2794 85.253 83.1354 85.121C82.9954 84.989 82.8814 84.827 82.7934 84.635C82.7094 84.443 82.6674 84.211 82.6674 83.939C82.6674 83.687 82.7174 83.447 82.8174 83.219C82.9174 82.991 83.0634 82.793 83.2554 82.625C83.4514 82.453 83.6934 82.317 83.9814 82.217C84.2734 82.113 84.6094 82.061 84.9894 82.061C85.4134 82.061 85.7994 82.131 86.1474 82.271C86.4954 82.411 86.7854 82.595 87.0174 82.823L86.6814 83.357ZM89.6808 82.817C89.9208 82.593 90.1848 82.411 90.4728 82.271C90.7608 82.131 91.0988 82.061 91.4868 82.061C91.8228 82.061 92.1208 82.119 92.3808 82.235C92.6408 82.347 92.8568 82.507 93.0288 82.715C93.2048 82.919 93.3368 83.165 93.4248 83.453C93.5168 83.737 93.5628 84.051 93.5628 84.395V88.313H92.0808V84.395C92.0808 84.019 91.9948 83.729 91.8228 83.525C91.6508 83.317 91.3888 83.213 91.0368 83.213C90.7808 83.213 90.5408 83.271 90.3168 83.387C90.0928 83.503 89.8808 83.661 89.6808 83.861V88.313H88.1988V79.397H89.6808V82.817ZM96.5082 82.157V88.313H95.0202V82.157H96.5082ZM96.7122 80.363C96.7122 80.491 96.6862 80.611 96.6342 80.723C96.5822 80.835 96.5122 80.933 96.4242 81.017C96.3402 81.101 96.2402 81.169 96.1242 81.221C96.0082 81.269 95.8842 81.293 95.7522 81.293C95.6242 81.293 95.5022 81.269 95.3862 81.221C95.2742 81.169 95.1762 81.101 95.0922 81.017C95.0082 80.933 94.9402 80.835 94.8882 80.723C94.8402 80.611 94.8162 80.491 94.8162 80.363C94.8162 80.231 94.8402 80.107 94.8882 79.991C94.9402 79.875 95.0082 79.775 95.0922 79.691C95.1762 79.607 95.2742 79.541 95.3862 79.493C95.5022 79.441 95.6242 79.415 95.7522 79.415C95.8842 79.415 96.0082 79.441 96.1242 79.493C96.2402 79.541 96.3402 79.607 96.4242 79.691C96.5122 79.775 96.5822 79.875 96.6342 79.991C96.6862 80.107 96.7122 80.231 96.7122 80.363ZM99.5011 86.717C99.6691 86.921 99.8511 87.065 100.047 87.149C100.247 87.233 100.463 87.275 100.695 87.275C100.919 87.275 101.121 87.233 101.301 87.149C101.481 87.065 101.633 86.937 101.757 86.765C101.885 86.593 101.983 86.377 102.051 86.117C102.119 85.853 102.153 85.543 102.153 85.187C102.153 84.827 102.123 84.523 102.063 84.275C102.007 84.023 101.925 83.819 101.817 83.663C101.709 83.507 101.577 83.393 101.421 83.321C101.269 83.249 101.095 83.213 100.899 83.213C100.591 83.213 100.329 83.279 100.113 83.411C99.8971 83.539 99.6931 83.721 99.5011 83.957V86.717ZM99.4231 82.997C99.6751 82.713 99.9611 82.483 100.281 82.307C100.601 82.131 100.977 82.043 101.409 82.043C101.745 82.043 102.051 82.113 102.327 82.253C102.607 82.393 102.847 82.597 103.047 82.865C103.251 83.129 103.407 83.457 103.515 83.849C103.627 84.237 103.683 84.683 103.683 85.187C103.683 85.647 103.621 86.073 103.497 86.465C103.373 86.857 103.195 87.197 102.963 87.485C102.735 87.773 102.457 87.999 102.129 88.163C101.805 88.323 101.441 88.403 101.037 88.403C100.693 88.403 100.399 88.351 100.155 88.247C99.9111 88.139 99.6931 87.991 99.5011 87.803V90.323H98.0191V82.157H98.9251C99.1171 82.157 99.2431 82.247 99.3031 82.427L99.4231 82.997Z" fill="#5C5959"/>
</g>
<g filter="url(#filter1_d_212_42)">
<path d="M80.6708 45.9042C80.312 45.9037 79.9609 45.7999 79.6596 45.6052L71.3257 40.2411L62.9936 45.6089C62.677 45.8137 62.3058 45.918 61.9288 45.908C61.5517 45.8979 61.1866 45.7741 60.8813 45.5527C60.576 45.3313 60.3448 45.0227 60.2181 44.6674C60.0914 44.3122 60.0751 43.927 60.1714 43.5623L62.6946 33.9706L56.953 28.5037C56.6982 28.2614 56.517 27.9521 56.4301 27.6114C56.3432 27.2708 56.3541 26.9125 56.4617 26.5777C56.5692 26.243 56.769 25.9454 57.0381 25.7191C57.3071 25.4927 57.6346 25.3469 57.9828 25.2983L66.1598 24.1545L69.6473 17.0448C69.7997 16.7345 70.0352 16.4726 70.3275 16.2882C70.6199 16.1038 70.9576 16.004 71.3033 16C71.6482 15.9994 71.9868 16.0926 72.2828 16.2698C72.5788 16.4469 72.821 16.7012 72.9835 17.0055L76.7085 24.1545L84.6742 25.3002C85.0216 25.3499 85.3479 25.4964 85.6159 25.723C85.8839 25.9495 86.0827 26.2469 86.1896 26.5812C86.2964 26.9154 86.3071 27.273 86.2202 27.613C86.1333 27.953 85.9525 28.2617 85.6984 28.5037L79.9568 33.9687L82.48 43.5605C82.5526 43.8371 82.5608 44.1267 82.5039 44.407C82.447 44.6873 82.3265 44.9508 82.1517 45.1772C81.977 45.4037 81.7526 45.5869 81.4958 45.713C81.239 45.839 80.9568 45.9044 80.6708 45.9042V45.9042ZM71.3257 36.148C71.6843 36.1479 72.0353 36.251 72.3368 36.4451L77.6392 39.8598L76.0599 33.8509C75.9746 33.5275 75.9776 33.1871 76.0687 32.8653C76.1597 32.5434 76.3355 32.2519 76.5776 32.0212L80.3306 28.4514L75.2282 27.7168C74.9349 27.6746 74.6559 27.5633 74.4141 27.3921C74.1724 27.2208 73.9748 26.9945 73.8377 26.7319L71.3762 22.0089L69.0773 26.6908C68.943 26.9647 68.7437 27.2016 68.4967 27.3808C68.2497 27.56 67.9627 27.676 67.6606 27.7187L62.3358 28.4644L66.0738 32.0212C66.3162 32.2517 66.4924 32.5432 66.5837 32.865C66.6751 33.1869 66.6785 33.5274 66.5934 33.8509L65.0122 39.8598L70.3146 36.4451C70.6159 36.2504 70.9669 36.1465 71.3257 36.1461V36.148Z" fill="#FFC700"/>
<path d="M59.7695 68.333C54.055 68.3338 48.5017 66.4386 43.9799 62.9445C39.458 59.4505 36.2232 54.555 34.7821 49.0251C33.3411 43.4953 33.7754 37.6437 36.0169 32.3871C38.2585 27.1306 42.1806 22.7662 47.1687 19.978C47.5238 19.7789 47.9343 19.7012 48.3376 19.7567C48.7409 19.8123 49.1151 19.998 49.4032 20.2857C49.6913 20.5734 49.8776 20.9473 49.9338 21.3506C49.9899 21.7538 49.9128 22.1644 49.7142 22.5198C47.3634 26.7159 46.4474 31.565 47.1057 36.3295C47.764 41.094 49.9605 45.5131 53.3611 48.9145C56.7617 52.3159 61.1802 54.5135 65.9445 55.173C70.7089 55.8325 75.5582 54.9177 79.7549 52.5679C80.11 52.3688 80.5205 52.2911 80.9238 52.3467C81.3272 52.4022 81.7013 52.588 81.9894 52.8757C82.2775 53.1634 82.4638 53.5373 82.52 53.9405C82.5761 54.3438 82.499 54.7543 82.3005 55.1098C80.0562 59.1149 76.7864 62.4507 72.8268 64.7745C68.8673 67.0983 64.3606 68.3266 59.7695 68.333ZM43.9016 27.1643C39.8642 31.3242 37.6252 36.9054 37.6685 42.7023C37.7118 48.4992 40.0338 54.0464 44.1329 58.1455C48.2321 62.2446 53.7792 64.5666 59.5761 64.6099C65.373 64.6532 70.9542 62.4143 75.1141 58.3768C70.8048 59.4333 66.2958 59.3611 62.0225 58.167C57.7493 56.9729 53.856 54.6973 50.7186 51.5599C47.5812 48.4224 45.3056 44.5292 44.1115 40.2559C42.9174 35.9826 42.8451 31.4737 43.9016 27.1643Z" fill="#FFC700"/>
</g>
<defs>
<filter id="filter0_dd_212_42" x="14.8586" y="79.397" width="92.8245" height="19.0762" filterUnits="userSpaceOnUse" color-interpolation-filters="sRGB">
<feFlood flood-opacity="0" result="BackgroundImageFix"/>
<feColorMatrix in="SourceAlpha" type="matrix" values="0 0 0 0 0 0 0 0 0 0 0 0 0 0 0 0 0 0 127 0" result="hardAlpha"/>
<feOffset dy="4"/>
<feGaussianBlur stdDeviation="2"/>
<feComposite in2="hardAlpha" operator="out"/>
<feColorMatrix type="matrix" values="0 0 0 0 0 0 0 0 0 0 0 0 0 0 0 0 0 0 0.25 0"/>
<feBlend mode="normal" in2="BackgroundImageFix" result="effect1_dropShadow_212_42"/>
<feColorMatrix in="SourceAlpha" type="matrix" values="0 0 0 0 0 0 0 0 0 0 0 0 0 0 0 0 0 0 127 0" result="hardAlpha"/>
<feOffset dy="4"/>
<feGaussianBlur stdDeviation="2"/>
<feComposite in2="hardAlpha" operator="out"/>
<feColorMatrix type="matrix" values="0 0 0 0 0 0 0 0 0 0 0 0 0 0 0 0 0 0 0.25 0"/>
<feBlend mode="normal" in2="effect1_dropShadow_212_42" result="effect2_dropShadow_212_42"/>
<feBlend mode="normal" in="SourceGraphic" in2="effect2_dropShadow_212_42" result="shape"/>
</filter>
<filter id="filter1_d_212_42" x="29.9478" y="16" width="60.3306" height="60.333" filterUnits="userSpaceOnUse" color-interpolation-filters="sRGB">
<feFlood flood-opacity="0" result="BackgroundImageFix"/>
<feColorMatrix in="SourceAlpha" type="matrix" values="0 0 0 0 0 0 0 0 0 0 0 0 0 0 0 0 0 0 127 0" result="hardAlpha"/>
<feOffset dy="4"/>
<feGaussianBlur stdDeviation="2"/>
<feComposite in2="hardAlpha" operator="out"/>
<feColorMatrix type="matrix" values="0 0 0 0 0 0 0 0 0 0 0 0 0 0 0 0 0 0 0.25 0"/>
<feBlend mode="normal" in2="BackgroundImageFix" result="effect1_dropShadow_212_42"/>
<feBlend mode="normal" in="SourceGraphic" in2="effect1_dropShadow_212_42" result="shape"/>
</filter>
</defs>
</svg>
